HIERARCHY
ROOT hip
{
  OFFSET 0 0 0
  CHANNELS 6 Xposition Yposition Zposition Zrotation Yrotation Xrotation
  JOINT abdomen
  {
    OFFSET 0 20.6881 -0.73152
    CHANNELS 3 Zrotation Xrotation Yrotation
    JOINT chest
    {
      OFFSET 0 11.7043 -0.48768
      CHANNELS 3 Zrotation Xrotation Yrotation
      JOINT neck
      {
        OFFSET 0 22.1894 -2.19456
        CHANNELS 3 Zrotation Xrotation Yrotation
        JOINT head
        {
          OFFSET -0.24384 7.07133 1.2192
          CHANNELS 3 Zrotation Xrotation Yrotation
          JOINT leftEye
          {
            OFFSET 4.14528 8.04674 8.04672
            CHANNELS 3 Zrotation Xrotation Yrotation
            End Site
            {
              OFFSET 1 0 0
            }
          }
          JOINT rightEye
          {
            OFFSET -3.6576 8.04674 8.04672
            CHANNELS 3 Zrotation Xrotation Yrotation
            End Site
            {
              OFFSET 1 0 0
            }
          }
        }
      }
      JOINT rCollar
      {
        OFFSET -2.68224 19.2634 -4.8768
        CHANNELS 3 Zrotation Xrotation Yrotation
        JOINT rShldr
        {
          OFFSET -8.77824 -1.95073 1.46304
          CHANNELS 3 Zrotation Xrotation Yrotation
          JOINT rForeArm
          {
            OFFSET -28.1742 -1.7115 0.48768
            CHANNELS 3 Zrotation Xrotation Yrotation
            JOINT rHand
            {
              OFFSET -22.5879 0.773209 7.07136
              CHANNELS 3 Zrotation Xrotation Yrotation
              JOINT rThumb1
              {
                OFFSET -1.2192 -0.487915 3.41376
                CHANNELS 3 Zrotation Xrotation Yrotation
                JOINT rThumb2
                {
                  OFFSET -3.37035 -0.52449 3.41376
                  CHANNELS 3 Zrotation Xrotation Yrotation
                  End Site
                  {
                    OFFSET -1.78271 -1.18214 1.43049
                  }
                }
              }
              JOINT rIndex1
              {
                OFFSET -7.75947 0.938293 5.60832
                CHANNELS 3 Zrotation Xrotation Yrotation
                JOINT rIndex2
                {
                  OFFSET -2.54057 -0.884171 1.56538
                  CHANNELS 3 Zrotation Xrotation Yrotation
                  End Site
                  {
                    OFFSET -1.62519 -0.234802 1.16502
                  }
                }
              }
              JOINT rMid1
              {
                OFFSET -8.24714 1.18213 3.41376
                CHANNELS 3 Zrotation Xrotation Yrotation
                JOINT rMid2
                {
                  OFFSET -3.10165 -0.590103 1.0647
                  CHANNELS 3 Zrotation Xrotation Yrotation
                  End Site
                  {
                    OFFSET -2.48547 -0.328903 0.83742
                  }
                }
              }
              JOINT rRing1
              {
                OFFSET -8.82822 0.546677 1.51678
                CHANNELS 3 Zrotation Xrotation Yrotation
                JOINT rRing2
                {
                  OFFSET -2.60934 -0.819778 -0.0198488
                  CHANNELS 3 Zrotation Xrotation Yrotation
                  End Site
                  {
                    OFFSET -2.33842 -0.294052 0.168128
                  }
                }
              }
              JOINT rPinky1
              {
                OFFSET -8.27202 -0.0477905 -0.4584
                CHANNELS 3 Zrotation Xrotation Yrotation
                JOINT rPinky2
                {
                  OFFSET -1.82734 -0.647385 -0.700984
                  CHANNELS 3 Zrotation Xrotation Yrotation
                  End Site
                  {
                    OFFSET -1.69225 -0.51767 -0.607171
                  }
                }
              }
            }
          }
        }
      }
      JOINT lCollar
      {
        OFFSET 2.68224 19.2634 -4.8768
        CHANNELS 3 Zrotation Xrotation Yrotation
        JOINT lShldr
        {
          OFFSET 8.77824 -1.95073 1.46304
          CHANNELS 3 Zrotation Xrotation Yrotation
          JOINT lForeArm
          {
            OFFSET 28.1742 -1.7115 0.48768
            CHANNELS 3 Zrotation Xrotation Yrotation
            JOINT lHand
            {
              OFFSET 22.5879 0.773209 7.07136
              CHANNELS 3 Zrotation Xrotation Yrotation
              JOINT lThumb1
              {
                OFFSET 1.2192 -0.487915 3.41376
                CHANNELS 3 Zrotation Xrotation Yrotation
                JOINT lThumb2
                {
                  OFFSET 3.37035 -0.52449 3.41376
                  CHANNELS 3 Zrotation Xrotation Yrotation
                  End Site
                  {
                    OFFSET 1.78271 -1.18214 1.43049
                  }
                }
              }
              JOINT lIndex1
              {
                OFFSET 7.75947 0.938293 5.60832
                CHANNELS 3 Zrotation Xrotation Yrotation
                JOINT lIndex2
                {
                  OFFSET 2.54057 -0.884171 1.56538
                  CHANNELS 3 Zrotation Xrotation Yrotation
                  End Site
                  {
                    OFFSET 1.62519 -0.234802 1.16502
                  }
                }
              }
              JOINT lMid1
              {
                OFFSET 8.24714 1.18213 3.41376
                CHANNELS 3 Zrotation Xrotation Yrotation
                JOINT lMid2
                {
                  OFFSET 3.10165 -0.590103 1.0647
                  CHANNELS 3 Zrotation Xrotation Yrotation
                  End Site
                  {
                    OFFSET 2.48547 -0.328903 0.83742
                  }
                }
              }
              JOINT lRing1
              {
                OFFSET 8.82822 0.546677 1.51678
                CHANNELS 3 Zrotation Xrotation Yrotation
                JOINT lRing2
                {
                  OFFSET 2.60934 -0.819778 -0.0198488
                  CHANNELS 3 Zrotation Xrotation Yrotation
                  End Site
                  {
                    OFFSET 2.33842 -0.294052 0.168128
                  }
                }
              }
              JOINT lPinky1
              {
                OFFSET 8.27202 -0.0477905 -0.4584
                CHANNELS 3 Zrotation Xrotation Yrotation
                JOINT lPinky2
                {
                  OFFSET 1.82734 -0.647385 -0.700984
                  CHANNELS 3 Zrotation Xrotation Yrotation
                  End Site
                  {
                    OFFSET 1.69225 -0.51767 -0.607171
                  }
                }
              }
            }
          }
        }
      }
    }
  }
  JOINT rButtock
  {
    OFFSET -8.77824 4.35084 1.2192
    CHANNELS 3 Zrotation Xrotation Yrotation
    JOINT rThigh
    {
      OFFSET 0 -1.70687 -2.19456
      CHANNELS 3 Zrotation Xrotation Yrotation
      JOINT rShin
      {
        OFFSET 0 -36.8199 0.73152
        CHANNELS 3 Zrotation Xrotation Yrotation
        JOINT rFoot
        {
          OFFSET 0.73152 -45.1104 -5.12064
          CHANNELS 3 Zrotation Xrotation Yrotation
          End Site
          {
            OFFSET -1.1221 -3.69964 12.103
          }
        }
      }
    }
  }
  JOINT lButtock
  {
    OFFSET 8.77824 4.35084 1.2192
    CHANNELS 3 Zrotation Xrotation Yrotation
    JOINT lThigh
    {
      OFFSET 0 -1.70687 -2.19456
      CHANNELS 3 Zrotation Xrotation Yrotation
      JOINT lShin
      {
        OFFSET 0 -36.8199 0.73152
        CHANNELS 3 Zrotation Xrotation Yrotation
        JOINT lFoot
        {
          OFFSET -0.73152 -45.1104 -5.12064
          CHANNELS 3 Zrotation Xrotation Yrotation
          End Site
          {
            OFFSET 1.1221 -3.69964 12.103
          }
        }
      }
    }
  }
}
MOTION
Frames:	7
Frame Time:	0.00833333
4.19537 84.3996 -72.8441 0.0 0.0 0.0 -0.991225 -0.00434165 -0.0274292 -0.27343 -0.00447546 -0.0473708 2.68832e-14 7.95139e-16 8.69684e-17 8.10529e-14 1.59028e-14 2.93518e-16 -0.0 0.0 0.0 -0.0 0.0 0.0 1.36162e-14 4.89197e-17 1.49089e-16 2.85096e-13 1.01877e-15 2.5842e-15 4.87654e-12 -1.42171e-12 3.18055e-15 5.57883e-11 1.6564e-12 2.38542e-13 1.31593e-10 5.11626e-13 5.1843e-13 2.27242e-10 8.84194e-13 8.73062e-13 1.31595e-10 5.10081e-13 5.05708e-13 7.73091 5.47488 0.417314 1.31593e-10 5.11175e-13 5.12069e-13 2.90554 0.965183 0.102902 1.31598e-10 5.11473e-13 5.08889e-13 10.2786 0.731801 0.0259123 1.31586e-10 5.1525e-13 5.08889e-13 2.22167 -0.733487 -0.20892 1.35188e-14 5.02785e-17 -4.96962e-17 2.82012e-13 1.2921e-15 7.95139e-16 4.87355e-12 1.49725e-12 -5.40694e-14 5.57856e-11 -1.26261e-12 2.95792e-13 1.31589e-10 5.0592e-13 5.08889e-13 2.27261e-10 8.71472e-13 8.90555e-13 1.31583e-10 5.05708e-13 5.1843e-13 -7.73091 5.47488 -0.417314 1.3159e-10 5.05112e-13 5.08889e-13 -2.90554 0.965183 -0.102902 1.31586e-10 5.05907e-13 5.1843e-13 -10.2786 0.731801 -0.0259123 1.31599e-10 5.08889e-13 5.12069e-13 -2.22167 -0.733487 0.20892 -2.03217e-16 0.0 -3.88251e-19 -0.253782 -1.9193 -0.012855 -0.00928927 -2.07855 -0.076734 -0.497371 3.99655 0.13811 2.03217e-16 0.0 3.88251e-19 -1.25489 -5.46677 0.109736 -9.50215e-05 4.34723 -0.0243735 0.511606 1.11837 -0.0811201
3.86076 82.983 -74.1112 -0.5852 -1.7806 5.2846 -1.07095 0.691015 -0.498198 0.257586 1.43832 -0.205377 -0.502043 0.849089 0.202941 0.351783 4.0086 0.441102 -0.0 0.0 0.0 -0.0 0.0 0.0 1.42378e-14 7.03924e-14 3.70858e-15 22.0641 3.12007 1.86085 -3.66435 -1.568 5.82431 0.137129 8.23021 1.11405 5.10595e-10 2.21267e-11 -4.83751e-10 8.70199e-10 4.90275e-11 -8.44779e-10 5.10598e-10 2.21242e-11 -4.83759e-10 7.73091 5.47488 0.417314 5.10594e-10 2.21258e-11 -4.83755e-10 2.90554 0.965183 0.102902 5.10599e-10 2.2126e-11 -4.83757e-10 10.2786 0.731801 0.0259123 5.10588e-10 2.21296e-11 -4.83754e-10 2.22167 -0.733487 -0.20892 1.41466e-14 7.03941e-14 3.5063e-15 -21.0671 5.05788 -3.60412 2.31956 -0.838666 -3.82314 -0.000552718 0.53752 -0.0755325 -2.56085e-11 4.63977e-10 7.15072e-10 -4.1931e-11 8.03775e-10 1.23564e-09 -2.56145e-11 4.63978e-10 7.15082e-10 -7.73091 5.47488 -0.417314 -2.56097e-11 4.63974e-10 7.1507e-10 -2.90554 0.965183 -0.102902 -2.56134e-11 4.63977e-10 7.15079e-10 -10.2786 0.731801 -0.0259123 -2.55997e-11 4.63979e-10 7.15074e-10 -2.22167 -0.733487 0.20892 -2.03217e-16 0.0 -3.88251e-19 -1.09052 -6.25081 -0.518485 -0.00720553 4.90717 0.0331431 -0.517391 0.269456 -0.427821 2.03217e-16 0.0 3.88251e-19 -0.801391 -8.66783 2.37864 -0.0149398 9.47462 -0.110565 0.579843 -1.76999 0.930727
3.81668 82.9825 -74.1163 -0.5586 -1.7867 5.3095 -1.14402 1.42434 -0.997108 0.828246 2.96547 -0.373128 -1.03947 1.74757 0.418295 0.65487 8.24551 0.916015 -0.0 0.0 0.0 -0.0 0.0 0.0 1.5186e-14 1.49208e-13 8.32411e-15 45.1707 6.40646 3.8462 -7.1946 -3.17235 11.9972 -0.080142 16.9177 2.37048 9.30402e-10 5.29898e-11 -1.03042e-09 1.58215e-09 1.14411e-10 -1.79914e-09 9.30404e-10 5.29861e-11 -1.03043e-09 7.73091 5.47488 0.417314 9.30399e-10 5.29885e-11 -1.03043e-09 2.90554 0.965183 0.102902 9.30404e-10 5.29885e-11 -1.03043e-09 10.2786 0.731801 0.0259123 9.30394e-10 5.29918e-11 -1.03042e-09 2.22167 -0.733487 -0.20892 1.50986e-14 1.4921e-13 8.11601e-15 -42.6352 10.3222 -7.50942 4.64789 -1.71162 -7.86344 0.000436538 1.12077 -0.157514 -2.0919e-10 9.72195e-10 1.51552e-09 -3.5645e-10 1.68421e-09 2.61884e-09 -2.09196e-10 9.72197e-10 1.51553e-09 -7.73091 5.47488 -0.417314 -2.09194e-10 9.72191e-10 1.51552e-09 -2.90554 0.965183 -0.102902 -2.09197e-10 9.72195e-10 1.51553e-09 -10.2786 0.731801 -0.0259123 -2.09182e-10 9.72197e-10 1.51552e-09 -2.22167 -0.733487 0.20892 -2.03217e-16 0.0 -3.88251e-19 -2.06138 -10.8287 -1.06065 -0.0345702 12.2944 0.152549 -0.619068 -3.6716 -1.03037 2.03217e-16 0.0 3.88251e-19 -0.0417208 -12.0242 4.83233 -0.0133193 14.8962 -0.205589 0.762777 -4.82269 2.00297
3.76302 82.983 -74.12 -0.5592 -1.8023 5.327 -1.1961 2.08115 -1.44058 1.34355 4.32377 -0.522684 -1.52419 2.54714 0.609358 0.866666 12.0229 1.34968 -0.0 0.0 0.0 -0.0 0.0 0.0 1.54811e-14 2.11079e-13 1.08276e-14 65.5784 9.32045 5.64909 -10.0507 -4.50991 17.5224 -0.629967 24.6513 3.63982 1.2686e-09 6.5357e-11 -1.45229e-09 2.15611e-09 1.45314e-10 -2.53608e-09 1.2686e-09 6.53523e-11 -1.45229e-09 7.73091 5.47488 0.417314 1.2686e-09 6.53552e-11 -1.45229e-09 2.90554 0.965183 0.102902 1.2686e-09 6.5355e-11 -1.45229e-09 10.2786 0.731801 0.0259123 1.26859e-09 6.53582e-11 -1.45228e-09 2.22167 -0.733487 -0.20892 1.54022e-14 2.11082e-13 1.06183e-14 -61.2486 14.9295 -11.1512 6.62515 -2.47123 -11.479 0.00259491 1.61255 -0.226677 -3.40004e-10 1.39092e-09 2.1442e-09 -5.80314e-10 2.40958e-09 3.70515e-09 -3.4001e-10 1.39092e-09 2.14421e-09 -7.73091 5.47488 -0.417314 -3.4001e-10 1.39091e-09 2.14419e-09 -2.90554 0.965183 -0.102902 -3.40013e-10 1.39092e-09 2.1442e-09 -10.2786 0.731801 -0.0259123 -3.39997e-10 1.39092e-09 2.1442e-09 -2.22167 -0.733487 0.20892 -2.03217e-16 0.0 -3.88251e-19 -3.00044 -14.9092 -1.5735 -0.0864201 18.8784 0.266783 -0.779218 -7.18205 -1.57133 2.03217e-16 0.0 3.88251e-19 0.888924 -14.9822 7.07768 0.00436645 19.7292 -0.295937 1.02432 -7.53732 2.97882
3.71323 82.9996 -74.1237 -0.5547 -1.7921 5.3435 -1.21991 2.54723 -1.74465 1.70341 5.26012 -0.625529 -1.86427 3.09954 0.739181 0.985615 14.6543 1.65495 -0.0 0.0 0.0 -0.0 0.0 0.0 1.41432e-14 2.30589e-13 8.05078e-15 79.6735 11.3412 6.93259 -11.8814 -5.36583 21.3806 -1.25123 30.0374 4.6612 1.40278e-09 3.14843e-11 -1.56214e-09 2.38511e-09 9.00161e-11 -2.72947e-09 1.40278e-09 3.14791e-11 -1.56214e-09 7.73091 5.47488 0.417314 1.40277e-09 3.14818e-11 -1.56214e-09 2.90554 0.965183 0.102902 1.40278e-09 3.14816e-11 -1.56214e-09 10.2786 0.731801 0.0259123 1.40277e-09 3.14847e-11 -1.56213e-09 2.22167 -0.733487 -0.20892 1.40852e-14 2.30591e-13 7.85199e-15 -73.8596 18.1253 -13.816 7.95785 -2.98975 -14.0237 0.00431674 1.87566 -0.263702 -3.38899e-10 1.5859e-09 2.34343e-09 -5.77539e-10 2.74728e-09 4.04926e-09 -3.38904e-10 1.58591e-09 2.34344e-09 -7.73091 5.47488 -0.417314 -3.38906e-10 1.5859e-09 2.34342e-09 -2.90554 0.965183 -0.102902 -3.38909e-10 1.5859e-09 2.34343e-09 -10.2786 0.731801 -0.0259123 -3.38893e-10 1.5859e-09 2.34342e-09 -2.22167 -0.733487 0.20892 -2.03217e-16 0.0 -3.88251e-19 -3.6945 -17.7504 -1.97427 -0.139511 23.4549 0.353397 -0.927029 -9.61903 -1.94281 2.03217e-16 0.0 3.88251e-19 1.68597 -17.0218 8.66626 0.0267077 23.0906 -0.363205 1.26573 -9.41592 3.68899
3.66303 83.0117 -74.1283 -0.5507 -1.7708 5.3651 -1.21747 2.74739 -1.85054 1.83702 5.60651 -0.661438 -1.99454 3.30521 0.782756 1.03822 15.6831 1.76151 -0.0 0.0 0.0 -0.0 0.0 0.0 1.03377e-14 1.7987e-13 -5.66148e-15 85.1317 12.1392 7.44418 -12.5556 -5.6749 22.8763 -1.55953 32.1655 5.10691 1.20819e-09 -1.00309e-10 -1.13166e-09 2.05907e-09 -1.45066e-10 -1.98218e-09 1.20819e-09 -1.00314e-10 -1.13166e-09 7.73091 5.47488 0.417314 1.20818e-09 -1.00313e-10 -1.13166e-09 2.90554 0.965183 0.102902 1.20819e-09 -1.00313e-10 -1.13166e-09 10.2786 0.731801 0.0259123 1.20818e-09 -1.0031e-10 -1.13165e-09 2.22167 -0.733487 -0.20892 1.03218e-14 1.79873e-13 -5.82649e-15 -78.7121 19.5066 -14.8881 8.48781 -3.1991 -15.0599 0.00417032 1.81702 -0.255453 -1.08436e-10 1.43315e-09 1.79468e-09 -1.80595e-10 2.48245e-09 3.10055e-09 -1.08439e-10 1.43315e-09 1.79469e-09 -7.73091 5.47488 -0.417314 -1.08441e-10 1.43314e-09 1.79467e-09 -2.90554 0.965183 -0.102902 -1.08446e-10 1.43315e-09 1.79468e-09 -10.2786 0.731801 -0.0259123 -1.08428e-10 1.43315e-09 1.79467e-09 -2.22167 -0.733487 0.20892 -2.03217e-16 0.0 -3.88251e-19 -3.9694 -18.8584 -2.1957 -0.164281 25.2201 0.388712 -0.984011 -10.5546 -2.05643 2.03217e-16 0.0 3.88251e-19 2.03652 -17.8225 9.25237 0.0382073 24.3887 -0.390363 1.38114 -10.13 4.01081
3.61166 83.0219 -74.1336 -0.5536 -1.7317 5.3894 -1.19868 2.75768 -1.81482 1.80737 5.53149 -0.649338 -1.97378 3.26327 0.764634 1.05805 15.5678 1.7209 -0.0 0.0 0.0 -0.0 0.0 0.0 4.77839e-15 7.95098e-14 -2.70161e-14 84.4676 12.0717 7.39135 -12.465 -5.62957 22.677 -1.5285 31.9761 5.06539 7.80813e-10 -3.00466e-10 -3.2015e-10 1.34001e-09 -5.0575e-10 -5.71532e-10 7.80817e-10 -3.0047e-10 -3.20149e-10 7.73091 5.47488 0.417314 7.80812e-10 -3.00471e-10 -3.20152e-10 2.90554 0.965183 0.102902 7.80819e-10 -3.0047e-10 -3.20151e-10 10.2786 0.731801 0.0259123 7.80808e-10 -3.00467e-10 -3.20144e-10 2.22167 -0.733487 -0.20892 4.81948e-15 7.95121e-14 -2.7131e-14 -78.1856 19.6433 -14.7539 8.46827 -3.19642 -15.017 0.00283858 1.52864 -0.214884 2.83728e-10 1.03365e-09 7.18651e-10 4.94237e-10 1.79009e-09 1.24047e-09 2.83727e-10 1.03365e-09 7.18656e-10 -7.73091 5.47488 -0.417314 2.83726e-10 1.03365e-09 7.18646e-10 -2.90554 0.965183 -0.102902 2.83719e-10 1.03365e-09 7.18649e-10 -10.2786 0.731801 -0.0259123 2.83738e-10 1.03366e-09 7.18643e-10 -2.22167 -0.733487 0.20892 -2.03217e-16 0.0 -3.88251e-19 -3.92312 -18.7294 -2.28004 -0.161071 24.9775 0.383328 -0.960176 -10.4186 -1.98192 2.03217e-16 0.0 3.88251e-19 2.00782 -17.7523 9.10006 0.0375706 24.213 -0.386592 1.3824 -10.0144 4.0494
